<mxfile host="app.diagrams.net" modified="2022-01-07T23:04:40.490Z" agent="5.0 (Windows NT 10.0; Win64; x64) AppleWebKit/537.36 (KHTML, like Gecko) Chrome/96.0.4664.110 Safari/537.36" etag="4hvkQ41n0NJvMi9vUAsY" version="16.2.4" type="github">
  <diagram id="3nMgcbFj-ToyWLCn06Pm" name="Page-1">
    <mxGraphModel dx="4063" dy="2269" grid="0" gridSize="10" guides="1" tooltips="1" connect="1" arrows="1" fold="1" page="1" pageScale="1" pageWidth="850" pageHeight="1100" math="0" shadow="0">
      <root>
        <mxCell id="0" />
        <mxCell id="1" parent="0" />
        <mxCell id="8UCAH_Wb2gfVUeerAJzx-2" value="" style="rounded=0;whiteSpace=wrap;html=1;fontSize=24;fillColor=none;dashed=1;strokeWidth=1;" vertex="1" parent="1">
          <mxGeometry x="1790" y="140" width="1399" height="910" as="geometry" />
        </mxCell>
        <mxCell id="8UCAH_Wb2gfVUeerAJzx-3" value="" style="rounded=0;whiteSpace=wrap;html=1;fontSize=24;fillColor=none;dashed=1;strokeWidth=1;" vertex="1" parent="1">
          <mxGeometry x="150" y="140" width="450" height="910" as="geometry" />
        </mxCell>
        <mxCell id="8UCAH_Wb2gfVUeerAJzx-4" value="" style="rounded=0;whiteSpace=wrap;html=1;fontSize=24;fillColor=none;dashed=1;strokeWidth=1;" vertex="1" parent="1">
          <mxGeometry x="640" y="140" width="950" height="910" as="geometry" />
        </mxCell>
        <mxCell id="8UCAH_Wb2gfVUeerAJzx-5" style="edgeStyle=orthogonalEdgeStyle;rounded=0;orthogonalLoop=1;jettySize=auto;html=1;exitX=1;exitY=0.5;exitDx=0;exitDy=0;entryX=0;entryY=0.5;entryDx=0;entryDy=0;" edge="1" parent="1" source="8UCAH_Wb2gfVUeerAJzx-6" target="8UCAH_Wb2gfVUeerAJzx-14">
          <mxGeometry relative="1" as="geometry" />
        </mxCell>
        <mxCell id="8UCAH_Wb2gfVUeerAJzx-6" value="Admin SignIn" style="rounded=0;whiteSpace=wrap;html=1;" vertex="1" parent="1">
          <mxGeometry x="190" y="230" width="120" height="60" as="geometry" />
        </mxCell>
        <mxCell id="8UCAH_Wb2gfVUeerAJzx-7" style="edgeStyle=orthogonalEdgeStyle;rounded=0;orthogonalLoop=1;jettySize=auto;html=1;exitX=0.5;exitY=0.5;exitDx=0;exitDy=0;exitPerimeter=0;" edge="1" parent="1" source="8UCAH_Wb2gfVUeerAJzx-8" target="8UCAH_Wb2gfVUeerAJzx-6">
          <mxGeometry relative="1" as="geometry" />
        </mxCell>
        <mxCell id="8UCAH_Wb2gfVUeerAJzx-8" value="Admin" style="shape=umlActor;verticalLabelPosition=bottom;verticalAlign=top;html=1;outlineConnect=0;" vertex="1" parent="1">
          <mxGeometry x="60" y="230" width="30" height="60" as="geometry" />
        </mxCell>
        <mxCell id="8UCAH_Wb2gfVUeerAJzx-9" style="edgeStyle=orthogonalEdgeStyle;rounded=0;orthogonalLoop=1;jettySize=auto;html=1;exitX=1;exitY=0.5;exitDx=0;exitDy=0;entryX=0;entryY=0.5;entryDx=0;entryDy=0;" edge="1" parent="1" source="8UCAH_Wb2gfVUeerAJzx-10" target="8UCAH_Wb2gfVUeerAJzx-17">
          <mxGeometry relative="1" as="geometry" />
        </mxCell>
        <mxCell id="8UCAH_Wb2gfVUeerAJzx-10" value="manage access" style="rounded=0;whiteSpace=wrap;html=1;" vertex="1" parent="1">
          <mxGeometry x="680" y="330" width="120" height="60" as="geometry" />
        </mxCell>
        <mxCell id="8UCAH_Wb2gfVUeerAJzx-11" style="edgeStyle=orthogonalEdgeStyle;rounded=0;orthogonalLoop=1;jettySize=auto;html=1;exitX=1;exitY=0.5;exitDx=0;exitDy=0;entryX=0;entryY=0.5;entryDx=0;entryDy=0;" edge="1" parent="1" source="8UCAH_Wb2gfVUeerAJzx-14" target="8UCAH_Wb2gfVUeerAJzx-10">
          <mxGeometry relative="1" as="geometry" />
        </mxCell>
        <mxCell id="8UCAH_Wb2gfVUeerAJzx-12" style="edgeStyle=orthogonalEdgeStyle;rounded=0;orthogonalLoop=1;jettySize=auto;html=1;exitX=1;exitY=0.5;exitDx=0;exitDy=0;fontSize=24;fillColor=#d5e8d4;strokeColor=#82b366;startArrow=none;" edge="1" parent="1" source="8UCAH_Wb2gfVUeerAJzx-88" target="8UCAH_Wb2gfVUeerAJzx-38">
          <mxGeometry relative="1" as="geometry">
            <Array as="points">
              <mxPoint x="580" y="260" />
              <mxPoint x="580" y="495" />
              <mxPoint x="480" y="495" />
            </Array>
          </mxGeometry>
        </mxCell>
        <mxCell id="8UCAH_Wb2gfVUeerAJzx-13" style="edgeStyle=orthogonalEdgeStyle;rounded=0;orthogonalLoop=1;jettySize=auto;html=1;exitX=0.5;exitY=1;exitDx=0;exitDy=0;entryX=0.5;entryY=1;entryDx=0;entryDy=0;fontSize=24;" edge="1" parent="1" source="8UCAH_Wb2gfVUeerAJzx-14" target="8UCAH_Wb2gfVUeerAJzx-6">
          <mxGeometry relative="1" as="geometry" />
        </mxCell>
        <mxCell id="8UCAH_Wb2gfVUeerAJzx-14" value="process admin auth" style="ellipse;whiteSpace=wrap;html=1;" vertex="1" parent="1">
          <mxGeometry x="360" y="220" width="120" height="80" as="geometry" />
        </mxCell>
        <mxCell id="8UCAH_Wb2gfVUeerAJzx-15" style="edgeStyle=orthogonalEdgeStyle;rounded=0;orthogonalLoop=1;jettySize=auto;html=1;exitX=1;exitY=0.5;exitDx=0;exitDy=0;startArrow=none;" edge="1" parent="1" source="8UCAH_Wb2gfVUeerAJzx-90" target="8UCAH_Wb2gfVUeerAJzx-19">
          <mxGeometry relative="1" as="geometry" />
        </mxCell>
        <mxCell id="8UCAH_Wb2gfVUeerAJzx-16" style="edgeStyle=orthogonalEdgeStyle;rounded=0;orthogonalLoop=1;jettySize=auto;html=1;exitX=1;exitY=0.5;exitDx=0;exitDy=0;entryX=0;entryY=0.5;entryDx=0;entryDy=0;startArrow=none;" edge="1" parent="1" source="8UCAH_Wb2gfVUeerAJzx-92" target="8UCAH_Wb2gfVUeerAJzx-21">
          <mxGeometry relative="1" as="geometry" />
        </mxCell>
        <mxCell id="8UCAH_Wb2gfVUeerAJzx-17" value="manage user action" style="ellipse;whiteSpace=wrap;html=1;" vertex="1" parent="1">
          <mxGeometry x="890" y="320" width="120" height="80" as="geometry" />
        </mxCell>
        <mxCell id="8UCAH_Wb2gfVUeerAJzx-18" style="edgeStyle=orthogonalEdgeStyle;rounded=0;orthogonalLoop=1;jettySize=auto;html=1;exitX=1;exitY=0.5;exitDx=0;exitDy=0;" edge="1" parent="1" source="8UCAH_Wb2gfVUeerAJzx-19" target="8UCAH_Wb2gfVUeerAJzx-23">
          <mxGeometry relative="1" as="geometry" />
        </mxCell>
        <mxCell id="8UCAH_Wb2gfVUeerAJzx-19" value="Add new role" style="rounded=0;whiteSpace=wrap;html=1;" vertex="1" parent="1">
          <mxGeometry x="1130" y="280" width="120" height="60" as="geometry" />
        </mxCell>
        <mxCell id="8UCAH_Wb2gfVUeerAJzx-20" style="edgeStyle=orthogonalEdgeStyle;rounded=0;orthogonalLoop=1;jettySize=auto;html=1;exitX=1;exitY=0.5;exitDx=0;exitDy=0;" edge="1" parent="1" source="8UCAH_Wb2gfVUeerAJzx-21" target="8UCAH_Wb2gfVUeerAJzx-30">
          <mxGeometry relative="1" as="geometry" />
        </mxCell>
        <mxCell id="8UCAH_Wb2gfVUeerAJzx-21" value="edit roles" style="rounded=0;whiteSpace=wrap;html=1;" vertex="1" parent="1">
          <mxGeometry x="1140" y="540" width="120" height="60" as="geometry" />
        </mxCell>
        <mxCell id="8UCAH_Wb2gfVUeerAJzx-22" style="edgeStyle=orthogonalEdgeStyle;rounded=0;orthogonalLoop=1;jettySize=auto;html=1;exitX=0.5;exitY=1;exitDx=0;exitDy=0;entryX=0.5;entryY=1;entryDx=0;entryDy=0;" edge="1" parent="1" source="8UCAH_Wb2gfVUeerAJzx-23" target="8UCAH_Wb2gfVUeerAJzx-19">
          <mxGeometry relative="1" as="geometry" />
        </mxCell>
        <mxCell id="8UCAH_Wb2gfVUeerAJzx-23" value="add new role" style="ellipse;whiteSpace=wrap;html=1;" vertex="1" parent="1">
          <mxGeometry x="1340" y="270" width="120" height="80" as="geometry" />
        </mxCell>
        <mxCell id="8UCAH_Wb2gfVUeerAJzx-24" style="edgeStyle=orthogonalEdgeStyle;rounded=0;orthogonalLoop=1;jettySize=auto;html=1;exitX=0.96;exitY=0.7;exitDx=0;exitDy=0;exitPerimeter=0;entryX=0;entryY=0.5;entryDx=0;entryDy=0;fontSize=12;fillColor=#dae8fc;strokeColor=#6c8ebf;" edge="1" parent="1" source="8UCAH_Wb2gfVUeerAJzx-25" target="8UCAH_Wb2gfVUeerAJzx-44">
          <mxGeometry relative="1" as="geometry" />
        </mxCell>
        <mxCell id="8UCAH_Wb2gfVUeerAJzx-25" value="/roles" style="ellipse;shape=cloud;whiteSpace=wrap;html=1;" vertex="1" parent="1">
          <mxGeometry x="1630" y="900" width="120" height="80" as="geometry" />
        </mxCell>
        <mxCell id="8UCAH_Wb2gfVUeerAJzx-26" value="" style="endArrow=classic;startArrow=classic;html=1;rounded=0;entryX=1;entryY=0.5;entryDx=0;entryDy=0;exitX=0.4;exitY=0.1;exitDx=0;exitDy=0;exitPerimeter=0;edgeStyle=orthogonalEdgeStyle;fillColor=#d5e8d4;strokeColor=#82b366;" edge="1" parent="1" source="8UCAH_Wb2gfVUeerAJzx-25" target="8UCAH_Wb2gfVUeerAJzx-23">
          <mxGeometry width="50" height="50" relative="1" as="geometry">
            <mxPoint x="1300" y="230" as="sourcePoint" />
            <mxPoint x="1350" y="180" as="targetPoint" />
            <Array as="points">
              <mxPoint x="1685" y="310" />
            </Array>
          </mxGeometry>
        </mxCell>
        <mxCell id="8UCAH_Wb2gfVUeerAJzx-27" value="add new role success" style="text;html=1;strokeColor=none;fillColor=default;align=center;verticalAlign=middle;whiteSpace=wrap;rounded=0;" vertex="1" parent="1">
          <mxGeometry x="1497" y="301" width="60" height="30" as="geometry" />
        </mxCell>
        <mxCell id="8UCAH_Wb2gfVUeerAJzx-28" value="add new role failed" style="text;html=1;strokeColor=none;fillColor=default;align=center;verticalAlign=middle;whiteSpace=wrap;rounded=0;" vertex="1" parent="1">
          <mxGeometry x="1273" y="360" width="60" height="30" as="geometry" />
        </mxCell>
        <mxCell id="8UCAH_Wb2gfVUeerAJzx-29" style="edgeStyle=orthogonalEdgeStyle;rounded=0;orthogonalLoop=1;jettySize=auto;html=1;exitX=0.5;exitY=1;exitDx=0;exitDy=0;entryX=0.5;entryY=1;entryDx=0;entryDy=0;" edge="1" parent="1" source="8UCAH_Wb2gfVUeerAJzx-30" target="8UCAH_Wb2gfVUeerAJzx-21">
          <mxGeometry relative="1" as="geometry" />
        </mxCell>
        <mxCell id="8UCAH_Wb2gfVUeerAJzx-30" value="edit new role" style="ellipse;whiteSpace=wrap;html=1;" vertex="1" parent="1">
          <mxGeometry x="1340" y="530" width="120" height="80" as="geometry" />
        </mxCell>
        <mxCell id="8UCAH_Wb2gfVUeerAJzx-31" value="" style="endArrow=classic;startArrow=none;html=1;rounded=0;entryX=1;entryY=0.5;entryDx=0;entryDy=0;exitX=0.4;exitY=0.1;exitDx=0;exitDy=0;exitPerimeter=0;edgeStyle=orthogonalEdgeStyle;fillColor=#d5e8d4;strokeColor=#82b366;" edge="1" parent="1" source="8UCAH_Wb2gfVUeerAJzx-94" target="8UCAH_Wb2gfVUeerAJzx-30">
          <mxGeometry width="50" height="50" relative="1" as="geometry">
            <mxPoint x="1290" y="620" as="sourcePoint" />
            <mxPoint x="1340" y="570" as="targetPoint" />
            <Array as="points" />
          </mxGeometry>
        </mxCell>
        <mxCell id="8UCAH_Wb2gfVUeerAJzx-32" value="edit new role failed" style="text;html=1;strokeColor=none;fillColor=default;align=center;verticalAlign=middle;whiteSpace=wrap;rounded=0;" vertex="1" parent="1">
          <mxGeometry x="1270" y="616" width="60" height="30" as="geometry" />
        </mxCell>
        <mxCell id="8UCAH_Wb2gfVUeerAJzx-33" value="&lt;span style=&quot;font-size: 24px&quot;&gt;AdminAuth&lt;/span&gt;" style="text;html=1;strokeColor=none;fillColor=none;align=center;verticalAlign=middle;whiteSpace=wrap;rounded=0;" vertex="1" parent="1">
          <mxGeometry x="310" y="50" width="110" height="60" as="geometry" />
        </mxCell>
        <mxCell id="8UCAH_Wb2gfVUeerAJzx-34" value="&lt;font style=&quot;font-size: 24px&quot;&gt;Admin role manager&lt;/font&gt;" style="text;html=1;strokeColor=none;fillColor=none;align=center;verticalAlign=middle;whiteSpace=wrap;rounded=0;" vertex="1" parent="1">
          <mxGeometry x="1110" y="30" width="110" height="60" as="geometry" />
        </mxCell>
        <mxCell id="8UCAH_Wb2gfVUeerAJzx-35" style="edgeStyle=orthogonalEdgeStyle;rounded=0;orthogonalLoop=1;jettySize=auto;html=1;exitX=0;exitY=0.5;exitDx=0;exitDy=0;fontSize=12;" edge="1" parent="1" source="8UCAH_Wb2gfVUeerAJzx-36" target="8UCAH_Wb2gfVUeerAJzx-44">
          <mxGeometry relative="1" as="geometry" />
        </mxCell>
        <mxCell id="8UCAH_Wb2gfVUeerAJzx-36" value="staff login" style="rounded=0;whiteSpace=wrap;html=1;" vertex="1" parent="1">
          <mxGeometry x="2888" y="500" width="120" height="60" as="geometry" />
        </mxCell>
        <mxCell id="8UCAH_Wb2gfVUeerAJzx-37" value="&lt;span style=&quot;font-size: 24px&quot;&gt;staff auth&lt;/span&gt;" style="text;html=1;strokeColor=none;fillColor=none;align=center;verticalAlign=middle;whiteSpace=wrap;rounded=0;" vertex="1" parent="1">
          <mxGeometry x="2500" y="44" width="110" height="60" as="geometry" />
        </mxCell>
        <mxCell id="8UCAH_Wb2gfVUeerAJzx-38" value="/user" style="shape=cylinder3;whiteSpace=wrap;html=1;boundedLbl=1;backgroundOutline=1;size=15;rounded=0;dashed=1;fontSize=24;strokeWidth=1;fillColor=none;" vertex="1" parent="1">
          <mxGeometry x="450" y="820" width="60" height="80" as="geometry" />
        </mxCell>
        <mxCell id="8UCAH_Wb2gfVUeerAJzx-39" value="&lt;font style=&quot;font-size: 12px&quot;&gt;Auth failed&lt;/font&gt;" style="text;html=1;strokeColor=none;fillColor=default;align=center;verticalAlign=middle;whiteSpace=wrap;rounded=0;dashed=1;fontSize=24;" vertex="1" parent="1">
          <mxGeometry x="310" y="316" width="60" height="30" as="geometry" />
        </mxCell>
        <mxCell id="8UCAH_Wb2gfVUeerAJzx-40" style="edgeStyle=orthogonalEdgeStyle;rounded=0;orthogonalLoop=1;jettySize=auto;html=1;exitX=1;exitY=1;exitDx=0;exitDy=0;entryX=0.25;entryY=1;entryDx=0;entryDy=0;fontSize=12;" edge="1" parent="1" source="8UCAH_Wb2gfVUeerAJzx-44" target="8UCAH_Wb2gfVUeerAJzx-36">
          <mxGeometry relative="1" as="geometry">
            <Array as="points">
              <mxPoint x="2665" y="592" />
              <mxPoint x="2918" y="592" />
            </Array>
          </mxGeometry>
        </mxCell>
        <mxCell id="8UCAH_Wb2gfVUeerAJzx-41" style="edgeStyle=orthogonalEdgeStyle;rounded=0;orthogonalLoop=1;jettySize=auto;html=1;exitX=0.5;exitY=0;exitDx=0;exitDy=0;entryX=0.5;entryY=1;entryDx=0;entryDy=0;fontSize=12;strokeWidth=2;" edge="1" parent="1" source="8UCAH_Wb2gfVUeerAJzx-44" target="8UCAH_Wb2gfVUeerAJzx-58">
          <mxGeometry relative="1" as="geometry" />
        </mxCell>
        <mxCell id="8UCAH_Wb2gfVUeerAJzx-42" style="edgeStyle=orthogonalEdgeStyle;rounded=0;orthogonalLoop=1;jettySize=auto;html=1;exitX=0.5;exitY=1;exitDx=0;exitDy=0;entryX=0.5;entryY=0;entryDx=0;entryDy=0;fontSize=12;" edge="1" parent="1" source="8UCAH_Wb2gfVUeerAJzx-44" target="8UCAH_Wb2gfVUeerAJzx-67">
          <mxGeometry relative="1" as="geometry" />
        </mxCell>
        <mxCell id="8UCAH_Wb2gfVUeerAJzx-43" style="edgeStyle=orthogonalEdgeStyle;rounded=0;orthogonalLoop=1;jettySize=auto;html=1;exitX=0.1;exitY=0.163;exitDx=0;exitDy=0;entryX=0.5;entryY=1;entryDx=0;entryDy=0;fontSize=12;exitPerimeter=0;" edge="1" parent="1" source="8UCAH_Wb2gfVUeerAJzx-44" target="8UCAH_Wb2gfVUeerAJzx-77">
          <mxGeometry relative="1" as="geometry" />
        </mxCell>
        <mxCell id="8UCAH_Wb2gfVUeerAJzx-44" value="process staff login" style="ellipse;whiteSpace=wrap;html=1;" vertex="1" parent="1">
          <mxGeometry x="2563" y="490" width="120" height="80" as="geometry" />
        </mxCell>
        <mxCell id="8UCAH_Wb2gfVUeerAJzx-45" value="/user" style="shape=cylinder3;whiteSpace=wrap;html=1;boundedLbl=1;backgroundOutline=1;size=15;rounded=0;dashed=1;fontSize=24;strokeWidth=1;fillColor=none;" vertex="1" parent="1">
          <mxGeometry x="2593" y="883" width="60" height="80" as="geometry" />
        </mxCell>
        <mxCell id="8UCAH_Wb2gfVUeerAJzx-46" value="auth failed" style="text;html=1;strokeColor=none;fillColor=default;align=center;verticalAlign=middle;whiteSpace=wrap;rounded=0;dashed=1;fontSize=12;" vertex="1" parent="1">
          <mxGeometry x="2673" y="585" width="60" height="30" as="geometry" />
        </mxCell>
        <mxCell id="8UCAH_Wb2gfVUeerAJzx-47" value="auth success" style="text;html=1;strokeColor=none;fillColor=default;align=center;verticalAlign=middle;whiteSpace=wrap;rounded=0;dashed=1;fontSize=12;" vertex="1" parent="1">
          <mxGeometry x="2601" y="627" width="60" height="30" as="geometry" />
        </mxCell>
        <mxCell id="8UCAH_Wb2gfVUeerAJzx-48" style="edgeStyle=orthogonalEdgeStyle;rounded=0;orthogonalLoop=1;jettySize=auto;html=1;exitX=0.5;exitY=0.5;exitDx=0;exitDy=0;exitPerimeter=0;fontSize=12;" edge="1" parent="1" source="8UCAH_Wb2gfVUeerAJzx-50" target="8UCAH_Wb2gfVUeerAJzx-36">
          <mxGeometry relative="1" as="geometry" />
        </mxCell>
        <mxCell id="8UCAH_Wb2gfVUeerAJzx-49" style="edgeStyle=orthogonalEdgeStyle;rounded=0;orthogonalLoop=1;jettySize=auto;html=1;exitX=0.5;exitY=0.5;exitDx=0;exitDy=0;exitPerimeter=0;entryX=1;entryY=0.5;entryDx=0;entryDy=0;fontSize=12;" edge="1" parent="1" source="8UCAH_Wb2gfVUeerAJzx-50" target="8UCAH_Wb2gfVUeerAJzx-58">
          <mxGeometry relative="1" as="geometry" />
        </mxCell>
        <mxCell id="8UCAH_Wb2gfVUeerAJzx-50" value="staff" style="shape=umlActor;verticalLabelPosition=bottom;verticalAlign=top;html=1;outlineConnect=0;rounded=0;fontSize=12;strokeWidth=1;fillColor=none;" vertex="1" parent="1">
          <mxGeometry x="3231" y="490" width="40" height="80" as="geometry" />
        </mxCell>
        <mxCell id="8UCAH_Wb2gfVUeerAJzx-51" value="" style="rounded=0;whiteSpace=wrap;html=1;fontSize=24;fillColor=none;dashed=1;strokeWidth=1;" vertex="1" parent="1">
          <mxGeometry x="150" y="1078" width="450" height="181" as="geometry" />
        </mxCell>
        <mxCell id="8UCAH_Wb2gfVUeerAJzx-52" value="Admin Auth" style="text;html=1;strokeColor=none;fillColor=none;align=center;verticalAlign=middle;whiteSpace=wrap;rounded=0;fontSize=12;" vertex="1" parent="1">
          <mxGeometry x="170" y="1105" width="95" height="30" as="geometry" />
        </mxCell>
        <mxCell id="8UCAH_Wb2gfVUeerAJzx-53" value="&amp;nbsp;- Admin can authenticate only via GoogleAUTH.&lt;br&gt;&amp;nbsp;- Admin will be only one google account and whoever owns the account has full control over it&lt;br&gt;&amp;nbsp;- Admin will have a separate dashboard which only one admin email can authenticate and controls cannot be transferred.&amp;nbsp;" style="text;html=1;strokeColor=none;fillColor=none;align=left;verticalAlign=top;whiteSpace=wrap;rounded=0;fontSize=12;" vertex="1" parent="1">
          <mxGeometry x="170" y="1140" width="406" height="101" as="geometry" />
        </mxCell>
        <mxCell id="8UCAH_Wb2gfVUeerAJzx-54" value="" style="rounded=0;whiteSpace=wrap;html=1;fontSize=24;fillColor=none;dashed=1;strokeWidth=1;" vertex="1" parent="1">
          <mxGeometry x="1790" y="1079" width="953" height="180" as="geometry" />
        </mxCell>
        <mxCell id="8UCAH_Wb2gfVUeerAJzx-55" value="Role manager - Admin" style="text;html=1;strokeColor=none;fillColor=none;align=center;verticalAlign=middle;whiteSpace=wrap;rounded=0;fontSize=12;" vertex="1" parent="1">
          <mxGeometry x="1810" y="1094" width="152" height="30" as="geometry" />
        </mxCell>
        <mxCell id="8UCAH_Wb2gfVUeerAJzx-56" value="&amp;nbsp;- only admin can define roles.&lt;br&gt;&amp;nbsp;- All staff accounts are email signup/login.&lt;br&gt;&amp;nbsp;- All staff account need email verification before signing in.&lt;br&gt;&amp;nbsp;" style="text;html=1;strokeColor=none;fillColor=none;align=left;verticalAlign=top;whiteSpace=wrap;rounded=0;fontSize=12;" vertex="1" parent="1">
          <mxGeometry x="1810" y="1129" width="908" height="59" as="geometry" />
        </mxCell>
        <mxCell id="8UCAH_Wb2gfVUeerAJzx-57" style="edgeStyle=orthogonalEdgeStyle;rounded=0;orthogonalLoop=1;jettySize=auto;html=1;exitX=0;exitY=0.5;exitDx=0;exitDy=0;entryX=1;entryY=0.5;entryDx=0;entryDy=0;fontSize=12;strokeWidth=2;" edge="1" parent="1" source="8UCAH_Wb2gfVUeerAJzx-58" target="8UCAH_Wb2gfVUeerAJzx-62">
          <mxGeometry relative="1" as="geometry" />
        </mxCell>
        <mxCell id="8UCAH_Wb2gfVUeerAJzx-58" value="staff signup" style="rounded=0;whiteSpace=wrap;html=1;" vertex="1" parent="1">
          <mxGeometry x="2895" y="286" width="120" height="60" as="geometry" />
        </mxCell>
        <mxCell id="8UCAH_Wb2gfVUeerAJzx-59" style="edgeStyle=orthogonalEdgeStyle;rounded=0;orthogonalLoop=1;jettySize=auto;html=1;exitX=0.5;exitY=1;exitDx=0;exitDy=0;entryX=0.5;entryY=0;entryDx=0;entryDy=0;fontSize=12;" edge="1" parent="1" source="8UCAH_Wb2gfVUeerAJzx-62" target="8UCAH_Wb2gfVUeerAJzx-36">
          <mxGeometry relative="1" as="geometry">
            <Array as="points">
              <mxPoint x="2629" y="397" />
              <mxPoint x="2699" y="397" />
              <mxPoint x="2699" y="473" />
              <mxPoint x="2948" y="473" />
            </Array>
          </mxGeometry>
        </mxCell>
        <mxCell id="8UCAH_Wb2gfVUeerAJzx-60" style="edgeStyle=orthogonalEdgeStyle;rounded=0;orthogonalLoop=1;jettySize=auto;html=1;exitX=0;exitY=0;exitDx=0;exitDy=0;entryX=0.5;entryY=1;entryDx=0;entryDy=0;fontSize=12;" edge="1" parent="1" source="8UCAH_Wb2gfVUeerAJzx-62" target="8UCAH_Wb2gfVUeerAJzx-77">
          <mxGeometry relative="1" as="geometry" />
        </mxCell>
        <mxCell id="8UCAH_Wb2gfVUeerAJzx-61" style="edgeStyle=orthogonalEdgeStyle;rounded=0;orthogonalLoop=1;jettySize=auto;html=1;exitX=0;exitY=0.5;exitDx=0;exitDy=0;entryX=0;entryY=0.5;entryDx=0;entryDy=0;fontSize=12;strokeWidth=2;" edge="1" parent="1" source="8UCAH_Wb2gfVUeerAJzx-62" target="8UCAH_Wb2gfVUeerAJzx-67">
          <mxGeometry relative="1" as="geometry" />
        </mxCell>
        <mxCell id="8UCAH_Wb2gfVUeerAJzx-62" value="process staff signup" style="ellipse;whiteSpace=wrap;html=1;" vertex="1" parent="1">
          <mxGeometry x="2569" y="276" width="120" height="80" as="geometry" />
        </mxCell>
        <mxCell id="8UCAH_Wb2gfVUeerAJzx-63" value="user not found" style="text;html=1;strokeColor=none;fillColor=default;align=center;verticalAlign=middle;whiteSpace=wrap;rounded=0;dashed=1;fontSize=12;" vertex="1" parent="1">
          <mxGeometry x="2588" y="449" width="60" height="30" as="geometry" />
        </mxCell>
        <mxCell id="8UCAH_Wb2gfVUeerAJzx-64" value="user already exist" style="text;html=1;strokeColor=none;fillColor=default;align=center;verticalAlign=middle;whiteSpace=wrap;rounded=0;dashed=1;fontSize=12;" vertex="1" parent="1">
          <mxGeometry x="2599" y="366" width="60" height="40" as="geometry" />
        </mxCell>
        <mxCell id="8UCAH_Wb2gfVUeerAJzx-65" style="edgeStyle=orthogonalEdgeStyle;rounded=0;orthogonalLoop=1;jettySize=auto;html=1;exitX=0.5;exitY=1;exitDx=0;exitDy=0;entryX=0.5;entryY=0;entryDx=0;entryDy=0;entryPerimeter=0;fontSize=12;" edge="1" parent="1" source="8UCAH_Wb2gfVUeerAJzx-67" target="8UCAH_Wb2gfVUeerAJzx-45">
          <mxGeometry relative="1" as="geometry" />
        </mxCell>
        <mxCell id="8UCAH_Wb2gfVUeerAJzx-66" style="edgeStyle=orthogonalEdgeStyle;rounded=0;orthogonalLoop=1;jettySize=auto;html=1;exitX=1;exitY=0.5;exitDx=0;exitDy=0;entryX=0;entryY=0.5;entryDx=0;entryDy=0;fontSize=12;startArrow=none;" edge="1" parent="1" source="8UCAH_Wb2gfVUeerAJzx-86" target="8UCAH_Wb2gfVUeerAJzx-70">
          <mxGeometry relative="1" as="geometry" />
        </mxCell>
        <mxCell id="8UCAH_Wb2gfVUeerAJzx-67" value="process email verified" style="ellipse;whiteSpace=wrap;html=1;" vertex="1" parent="1">
          <mxGeometry x="2569" y="708" width="120" height="80" as="geometry" />
        </mxCell>
        <mxCell id="8UCAH_Wb2gfVUeerAJzx-68" value="email verified" style="text;html=1;strokeColor=none;fillColor=default;align=center;verticalAlign=middle;whiteSpace=wrap;rounded=0;dashed=1;fontSize=12;" vertex="1" parent="1">
          <mxGeometry x="2639" y="812" width="60" height="30" as="geometry" />
        </mxCell>
        <mxCell id="8UCAH_Wb2gfVUeerAJzx-69" style="edgeStyle=orthogonalEdgeStyle;rounded=0;orthogonalLoop=1;jettySize=auto;html=1;exitX=1;exitY=0.5;exitDx=0;exitDy=0;fontSize=12;" edge="1" parent="1" source="8UCAH_Wb2gfVUeerAJzx-70" target="8UCAH_Wb2gfVUeerAJzx-73">
          <mxGeometry relative="1" as="geometry" />
        </mxCell>
        <mxCell id="8UCAH_Wb2gfVUeerAJzx-70" value="verify email/send verification mail" style="rounded=0;whiteSpace=wrap;html=1;" vertex="1" parent="1">
          <mxGeometry x="2888" y="834" width="120" height="60" as="geometry" />
        </mxCell>
        <mxCell id="8UCAH_Wb2gfVUeerAJzx-71" style="edgeStyle=orthogonalEdgeStyle;rounded=0;orthogonalLoop=1;jettySize=auto;html=1;exitX=0.5;exitY=0;exitDx=0;exitDy=0;entryX=0.5;entryY=1;entryDx=0;entryDy=0;fontSize=12;" edge="1" parent="1" source="8UCAH_Wb2gfVUeerAJzx-73" target="8UCAH_Wb2gfVUeerAJzx-36">
          <mxGeometry relative="1" as="geometry" />
        </mxCell>
        <mxCell id="8UCAH_Wb2gfVUeerAJzx-72" style="edgeStyle=orthogonalEdgeStyle;rounded=0;orthogonalLoop=1;jettySize=auto;html=1;exitX=0;exitY=0.5;exitDx=0;exitDy=0;entryX=0;entryY=0;entryDx=0;entryDy=0;fontSize=12;" edge="1" parent="1" source="8UCAH_Wb2gfVUeerAJzx-73" target="8UCAH_Wb2gfVUeerAJzx-70">
          <mxGeometry relative="1" as="geometry" />
        </mxCell>
        <mxCell id="8UCAH_Wb2gfVUeerAJzx-73" value="process verification email" style="ellipse;whiteSpace=wrap;html=1;" vertex="1" parent="1">
          <mxGeometry x="2888" y="692" width="120" height="80" as="geometry" />
        </mxCell>
        <mxCell id="8UCAH_Wb2gfVUeerAJzx-74" value="email sent successfully" style="text;html=1;strokeColor=none;fillColor=default;align=center;verticalAlign=middle;whiteSpace=wrap;rounded=0;fontSize=12;" vertex="1" parent="1">
          <mxGeometry x="2928" y="646" width="60" height="30" as="geometry" />
        </mxCell>
        <mxCell id="8UCAH_Wb2gfVUeerAJzx-75" value="email sending failed" style="text;html=1;strokeColor=none;fillColor=default;align=center;verticalAlign=middle;whiteSpace=wrap;rounded=0;fontSize=12;" vertex="1" parent="1">
          <mxGeometry x="2831" y="741" width="60" height="47" as="geometry" />
        </mxCell>
        <mxCell id="8UCAH_Wb2gfVUeerAJzx-76" style="edgeStyle=orthogonalEdgeStyle;rounded=0;orthogonalLoop=1;jettySize=auto;html=1;exitX=1;exitY=0.5;exitDx=0;exitDy=0;entryX=0;entryY=0.5;entryDx=0;entryDy=0;fontSize=12;" edge="1" parent="1" source="8UCAH_Wb2gfVUeerAJzx-77" target="8UCAH_Wb2gfVUeerAJzx-82">
          <mxGeometry relative="1" as="geometry" />
        </mxCell>
        <mxCell id="8UCAH_Wb2gfVUeerAJzx-77" value="password reset" style="rounded=0;whiteSpace=wrap;html=1;" vertex="1" parent="1">
          <mxGeometry x="2231" y="204" width="120" height="60" as="geometry" />
        </mxCell>
        <mxCell id="8UCAH_Wb2gfVUeerAJzx-78" value="forgot password" style="text;html=1;strokeColor=none;fillColor=default;align=center;verticalAlign=middle;whiteSpace=wrap;rounded=0;dashed=1;fontSize=12;" vertex="1" parent="1">
          <mxGeometry x="2481" y="273" width="60" height="30" as="geometry" />
        </mxCell>
        <mxCell id="8UCAH_Wb2gfVUeerAJzx-79" value="forgot password" style="text;html=1;strokeColor=none;fillColor=default;align=center;verticalAlign=middle;whiteSpace=wrap;rounded=0;dashed=1;fontSize=12;" vertex="1" parent="1">
          <mxGeometry x="2448" y="462" width="60" height="30" as="geometry" />
        </mxCell>
        <mxCell id="8UCAH_Wb2gfVUeerAJzx-80" style="edgeStyle=orthogonalEdgeStyle;rounded=0;orthogonalLoop=1;jettySize=auto;html=1;exitX=1;exitY=0.5;exitDx=0;exitDy=0;entryX=0.358;entryY=0.033;entryDx=0;entryDy=0;entryPerimeter=0;fontSize=17;" edge="1" parent="1" source="8UCAH_Wb2gfVUeerAJzx-82" target="8UCAH_Wb2gfVUeerAJzx-36">
          <mxGeometry relative="1" as="geometry">
            <Array as="points">
              <mxPoint x="2817" y="198" />
              <mxPoint x="2817" y="453" />
              <mxPoint x="2931" y="453" />
            </Array>
          </mxGeometry>
        </mxCell>
        <mxCell id="8UCAH_Wb2gfVUeerAJzx-81" style="edgeStyle=orthogonalEdgeStyle;rounded=0;orthogonalLoop=1;jettySize=auto;html=1;exitX=0.5;exitY=0;exitDx=0;exitDy=0;entryX=0.5;entryY=0;entryDx=0;entryDy=0;fontSize=17;strokeWidth=1;" edge="1" parent="1" source="8UCAH_Wb2gfVUeerAJzx-82" target="8UCAH_Wb2gfVUeerAJzx-77">
          <mxGeometry relative="1" as="geometry" />
        </mxCell>
        <mxCell id="8UCAH_Wb2gfVUeerAJzx-82" value="process password reset" style="ellipse;whiteSpace=wrap;html=1;" vertex="1" parent="1">
          <mxGeometry x="2409" y="158" width="120" height="80" as="geometry" />
        </mxCell>
        <mxCell id="8UCAH_Wb2gfVUeerAJzx-83" value="password reset success" style="text;html=1;strokeColor=none;fillColor=default;align=center;verticalAlign=middle;whiteSpace=wrap;rounded=0;fontSize=12;" vertex="1" parent="1">
          <mxGeometry x="2550" y="180" width="127" height="30" as="geometry" />
        </mxCell>
        <mxCell id="8UCAH_Wb2gfVUeerAJzx-84" value="password reset failed" style="text;html=1;strokeColor=none;fillColor=default;align=center;verticalAlign=middle;whiteSpace=wrap;rounded=0;fontSize=12;" vertex="1" parent="1">
          <mxGeometry x="2187" y="152" width="127" height="30" as="geometry" />
        </mxCell>
        <mxCell id="8UCAH_Wb2gfVUeerAJzx-85" value="signup success" style="text;html=1;strokeColor=none;fillColor=default;align=center;verticalAlign=middle;whiteSpace=wrap;rounded=0;dashed=1;fontSize=12;" vertex="1" parent="1">
          <mxGeometry x="2503" y="336" width="60" height="30" as="geometry" />
        </mxCell>
        <mxCell id="8UCAH_Wb2gfVUeerAJzx-86" value="email not verified" style="text;html=1;strokeColor=none;fillColor=default;align=center;verticalAlign=middle;whiteSpace=wrap;rounded=0;dashed=1;fontSize=12;" vertex="1" parent="1">
          <mxGeometry x="2707" y="733" width="60" height="30" as="geometry" />
        </mxCell>
        <mxCell id="8UCAH_Wb2gfVUeerAJzx-87" value="" style="edgeStyle=orthogonalEdgeStyle;rounded=0;orthogonalLoop=1;jettySize=auto;html=1;exitX=1;exitY=0.5;exitDx=0;exitDy=0;entryX=0;entryY=0.5;entryDx=0;entryDy=0;fontSize=12;endArrow=none;" edge="1" parent="1" source="8UCAH_Wb2gfVUeerAJzx-67" target="8UCAH_Wb2gfVUeerAJzx-86">
          <mxGeometry relative="1" as="geometry">
            <mxPoint x="2689" y="748" as="sourcePoint" />
            <mxPoint x="2888" y="864" as="targetPoint" />
          </mxGeometry>
        </mxCell>
        <mxCell id="8UCAH_Wb2gfVUeerAJzx-88" value="&lt;font style=&quot;font-size: 12px;&quot;&gt;Auth success&lt;/font&gt;" style="text;html=1;strokeColor=none;fillColor=default;align=center;verticalAlign=middle;whiteSpace=wrap;rounded=0;dashed=1;fontSize=12;" vertex="1" parent="1">
          <mxGeometry x="505" y="243" width="60" height="30" as="geometry" />
        </mxCell>
        <mxCell id="8UCAH_Wb2gfVUeerAJzx-89" value="" style="edgeStyle=orthogonalEdgeStyle;rounded=0;orthogonalLoop=1;jettySize=auto;html=1;exitX=1;exitY=0.5;exitDx=0;exitDy=0;fontSize=24;fillColor=#d5e8d4;strokeColor=#82b366;endArrow=none;" edge="1" parent="1" source="8UCAH_Wb2gfVUeerAJzx-14" target="8UCAH_Wb2gfVUeerAJzx-88">
          <mxGeometry relative="1" as="geometry">
            <mxPoint x="480" y="260" as="sourcePoint" />
            <mxPoint x="480.0588235294117" y="820" as="targetPoint" />
            <Array as="points" />
          </mxGeometry>
        </mxCell>
        <mxCell id="8UCAH_Wb2gfVUeerAJzx-90" value="&lt;font style=&quot;font-size: 12px&quot;&gt;select add new&lt;/font&gt;" style="text;html=1;strokeColor=none;fillColor=default;align=center;verticalAlign=middle;whiteSpace=wrap;rounded=0;dashed=1;fontSize=12;" vertex="1" parent="1">
          <mxGeometry x="1052" y="301" width="60" height="30" as="geometry" />
        </mxCell>
        <mxCell id="8UCAH_Wb2gfVUeerAJzx-91" value="" style="edgeStyle=orthogonalEdgeStyle;rounded=0;orthogonalLoop=1;jettySize=auto;html=1;exitX=1;exitY=0.5;exitDx=0;exitDy=0;endArrow=none;" edge="1" parent="1" source="8UCAH_Wb2gfVUeerAJzx-17" target="8UCAH_Wb2gfVUeerAJzx-90">
          <mxGeometry relative="1" as="geometry">
            <mxPoint x="1010" y="360" as="sourcePoint" />
            <mxPoint x="1130" y="310" as="targetPoint" />
          </mxGeometry>
        </mxCell>
        <mxCell id="8UCAH_Wb2gfVUeerAJzx-92" value="&lt;font style=&quot;font-size: 12px&quot;&gt;select edit&lt;/font&gt;" style="text;html=1;strokeColor=none;fillColor=default;align=center;verticalAlign=middle;whiteSpace=wrap;rounded=0;dashed=1;fontSize=12;" vertex="1" parent="1">
          <mxGeometry x="1046" y="384" width="60" height="30" as="geometry" />
        </mxCell>
        <mxCell id="8UCAH_Wb2gfVUeerAJzx-93" value="" style="edgeStyle=orthogonalEdgeStyle;rounded=0;orthogonalLoop=1;jettySize=auto;html=1;exitX=1;exitY=0.5;exitDx=0;exitDy=0;entryX=0;entryY=0.5;entryDx=0;entryDy=0;endArrow=none;" edge="1" parent="1" source="8UCAH_Wb2gfVUeerAJzx-17" target="8UCAH_Wb2gfVUeerAJzx-92">
          <mxGeometry relative="1" as="geometry">
            <mxPoint x="1010" y="360" as="sourcePoint" />
            <mxPoint x="1140" y="570" as="targetPoint" />
          </mxGeometry>
        </mxCell>
        <mxCell id="8UCAH_Wb2gfVUeerAJzx-94" value="edit new role success" style="text;html=1;strokeColor=none;fillColor=default;align=center;verticalAlign=middle;whiteSpace=wrap;rounded=0;" vertex="1" parent="1">
          <mxGeometry x="1484" y="549" width="60" height="30" as="geometry" />
        </mxCell>
        <mxCell id="8UCAH_Wb2gfVUeerAJzx-95" value="" style="endArrow=none;startArrow=classic;html=1;rounded=0;entryX=1;entryY=0.5;entryDx=0;entryDy=0;exitX=0.4;exitY=0.1;exitDx=0;exitDy=0;exitPerimeter=0;edgeStyle=orthogonalEdgeStyle;fillColor=#d5e8d4;strokeColor=#82b366;" edge="1" parent="1" source="8UCAH_Wb2gfVUeerAJzx-25" target="8UCAH_Wb2gfVUeerAJzx-94">
          <mxGeometry width="50" height="50" relative="1" as="geometry">
            <mxPoint x="1658" y="938" as="sourcePoint" />
            <mxPoint x="1460" y="570" as="targetPoint" />
            <Array as="points">
              <mxPoint x="1685" y="564" />
            </Array>
          </mxGeometry>
        </mxCell>
        <mxCell id="8UCAH_Wb2gfVUeerAJzx-96" value="" style="rounded=0;whiteSpace=wrap;html=1;fontSize=24;fillColor=none;dashed=1;strokeWidth=1;" vertex="1" parent="1">
          <mxGeometry x="1627.5" y="129" width="139" height="910" as="geometry" />
        </mxCell>
        <mxCell id="8UCAH_Wb2gfVUeerAJzx-97" value="&lt;span style=&quot;font-size: 24px&quot;&gt;db&lt;/span&gt;" style="text;html=1;strokeColor=none;fillColor=none;align=center;verticalAlign=middle;whiteSpace=wrap;rounded=0;" vertex="1" parent="1">
          <mxGeometry x="1640" y="53" width="110" height="60" as="geometry" />
        </mxCell>
      </root>
    </mxGraphModel>
  </diagram>
</mxfile>
